PathFileType	4	(X/Y/Z)	C:/Users/beibeiliu/ov580/test_trc/User2\sequence.23_training_dense_right.trc
DataRate	CameraRate	NumFrames	NumMarkers	Units	OrigDataRate	OrigDataStartFrame	OrigNumFrames
120	120	10	19	mm	120	27	79
Frame#	Time	ThumbCMC			ThumbMCP			ThumbIP			ThumbTip			IndexMCP			IndexPIP			IndexTip			MiddleMCP			MiddlePIP			MiddleTip			RingMCP			RingPIP			RingTip			PinkyMCP			PinkyPIP			PinkyTip			BackHand1			BackHand2			BackHand3	
		X0	Y0	Z0	X1	Y1	Z1	X2	Y2	Z2	X3	Y3	Z3	X4	Y4	Z4	X5	Y5	Z5	X6	Y6	Z6	X7	Y7	Z7	X8	Y8	Z8	X9	Y9	Z9	X10	Y10	Z10	X11	Y11	Z11	X12	Y12	Z12	X13	Y13	Z13	X14	Y14	Z14	X15	Y15	Z15	X16	Y16	Z16	X17	Y17	Z17	X18	Y18	Z18	
26	0.216667	155.197	26.8419	-48.3158	137.572	21.4848	-77.089	127.361	12.3443	-109.755	132.998	-6.83613	-132.928	193.044	20.7641	-117.216	180.991	4.11687	-142.351	149.344	-11.1157	-147.891	206.803	0.33488	-119.293	184.576	-19.3028	-146.961	152.607	-35.4084	-145.008	210.322	-20.6316	-117.825	189.37	-32.6781	-139.28	156.595	-43.8643	-136.8	211.004	-43.3169	-100.272	192.308	-47.6474	-125.181	165.783	-53.1951	-132.873	214.167	-10.1762	-52.4736	209.532	-10.6941	-19.1456	198.703	22.8736	-38.0745	
27	0.225	143.731	29.7617	-41.3036	129.614	21.6808	-74.6718	129.975	12.9115	-113.27	137.695	-0.378569	-134.067	189.417	41.1667	-111.939	180.179	28.6724	-138.422	156.725	2.96267	-147.246	206.656	28.0687	-114.366	194.807	8.29913	-144.738	163.684	-16.404	-148.145	218.913	6.59754	-108.354	202.878	-4.84779	-136.529	175.5	-27.7885	-139.534	223.174	-13.4324	-96.5971	213.423	-25.7418	-123.771	183.896	-32.7651	-137.753	216.271	11.245	-47.9333	206.562	8.93667	-11.1587	189.671	36.698	-34.9261	
28	0.233333	134.302	28.9886	-40.1187	122.702	22.897	-75.0299	122.594	16.3323	-106.928	133.729	8.67401	-132.744	172.45	60.2786	-107.73	166.967	47.3939	-134.054	150.147	14.8071	-143.277	193.973	50.8204	-109.712	185.254	35.6854	-140.355	164.892	2.08182	-149.123	209.308	31.3314	-108.246	200.794	17.4527	-134.721	177.411	-5.82462	-141.211	218.576	10.8818	-95.1972	210.266	1.48919	-124.405	192.403	-13.8498	-139.415	205.519	28.7716	-41.7436	199.517	18.076	-8.9003	173.227	46.695	-30.1946	
29	0.241667	119.397	26.5727	-33.7834	104.768	20.2893	-67.4577	102.29	17.6274	-105.733	119.307	12.738	-129.154	153.037	62.6868	-104.621	146.742	52.2327	-130.226	134.906	22.2355	-140.012	174.55	58.7814	-108.072	165.813	42.0793	-139.415	144.78	10.3358	-147.867	191.189	39.9503	-104.497	180.396	27.6458	-134.628	158.049	2.43076	-141.676	201.657	20.6207	-93.7791	193.937	11.0588	-125.732	178.004	-4.55197	-140.579	190.304	34.202	-42.4736	187.451	21.826	-8.7553	154.338	46.1522	-24.0609	
30	0.25	99.5337	19.3007	-33.3616	84.0959	11.6121	-65.3219	81.0672	5.51589	-98.6141	93.007	0.164206	-122.586	123.997	56.2171	-101.699	121.539	40.4313	-130.049	110.746	12.4331	-138.844	148.797	50.4477	-108.073	139.002	33.914	-140.772	123.661	0.190382	-146.536	167.601	34.6282	-108.302	155.333	22.5935	-135.336	136.391	-9.2692	-140.419	177.648	15.5531	-96.821	166.95	6.65255	-125.633	151.468	-10.2265	-139.393	171.085	26.7774	-43.9069	168.247	17.3694	-13.2896	137.141	39.4116	-24.189	
31	0.258333	83.1083	6.71194	-29.7649	66.3001	-3.81541	-63.7701	61.4365	-12.0802	-94.8295	72.3719	-19.4423	-121.952	105.263	38.841	-101.573	95.7064	22.3661	-131.229	88.3312	-9.82317	-136.097	126.632	35.1068	-112.181	116.997	15.5068	-141.187	98.075	-20.1947	-144.452	143.429	19.6794	-111.471	133.364	2.63546	-136.28	112.953	-22.4847	-137.84	158.698	0.105334	-98.7689	145.549	-10.6172	-124.768	125.202	-29.301	-135.814	150.761	17.8528	-47.1953	150.914	12.0316	-12.0209	122.241	28.5727	-27.1975	
32	0.266667	65.973	-1.15598	-22.9354	48.7782	-16.9318	-57.1206	42.0144	-28.9534	-89.4411	54.7826	-39.3257	-113.423	84.1921	23.2536	-101.573	71.1823	1.49545	-129.283	65.5752	-27.6006	-129.106	105.338	17.6947	-109.565	91.429	-5.40029	-138.521	81.6115	-42.7077	-136.524	124.159	3.10126	-110.076	111.72	-15.8724	-133.072	94.4989	-47.7407	-128.572	138.822	-13.154	-96.5548	128.484	-32.0087	-121.793	103.865	-53.639	-125.367	137.799	10.2355	-47.2253	140.28	5.47169	-15.9085	106.703	23.1769	-31.0884	
33	0.275	54.4429	-4.15231	-17.1977	33.0335	-23.707	-40.9346	24.4566	-41.1848	-71.6078	32.6418	-53.7132	-99.6278	61.1648	10.1269	-101.251	52.2182	-12.3175	-121.093	47.0316	-45.0698	-116.336	88.2099	0.772331	-106.359	71.3287	-24.8697	-130.387	57.7855	-58.2891	-121.62	103.892	-14.1795	-109.492	90.7085	-36.5241	-125.117	75.3588	-63.672	-113.422	118.949	-27.2161	-95.0077	104.827	-48.7235	-112.95	82.0547	-73.635	-109.986	121.518	6.2357	-46.7694	124.65	6.07346	-16.5134	88.8576	20.1488	-25.6219	
34	0.283333	44.1869	6.49472	-7.19506	16.8956	-13.1555	-26.5768	7.32756	-32.2792	-49.1178	6.67646	-50.1405	-76.1939	46.459	7.45672	-88.8444	25.5539	-16.1565	-106.386	17.2819	-43.4297	-95.3084	58.7407	-2.90379	-99.4056	42.2988	-30.5128	-112.829	26.5633	-62.6861	-92.7966	77.1522	-18.9724	-97.4533	61.5943	-42.4411	-108.253	39.0459	-65.4127	-86.3704	92.7552	-34.1211	-84.3797	73.1725	-57.2244	-95.4012	49.9305	-72.6228	-83.527	106.683	1.85539	-41.2968	113.835	7.57147	-10.0264	79.1663	25.0592	-23.5582	
35	0.291667	45.1681	41.1045	7.3827	8.59446	27.6796	-8.74499	-13.5769	9.51954	-26.1487	-14.0929	-11.9591	-45.18	26.9781	31.2976	-77.9606	7.43419	10.0959	-85.4276	-13.5532	-9.71063	-68.7348	37.6683	10.6128	-86.4782	10.108	-12.257	-89.4361	-7.08089	-34.0578	-62.9181	52.5695	-10.1726	-81.8206	21.9424	-26.122	-84.12	4.00401	-40.16	-55.3313	61.1968	-25.0329	-70.7747	37.4432	-39.2422	-72.3048	12.6744	-47.5257	-52.9834	93.519	15.5997	-37.5536	110.268	19.318	-6.44407	81.5881	43.113	-19.789	
